<svg xmlns="http://www.w3.org/2000/svg" width="820" height="20" viewBox="0 0 820 20"><defs></defs><style>
.b{opacity:0;animation:blockIn .7s cubic-bezier(.16,1,.3,1) forwards}
@keyframes blockIn{to{opacity:1}}
.s{opacity:0;animation:starIn .8s ease-out forwards}
@keyframes starIn{to{opacity:1}}
.l{animation:lineDraw 1.2s ease-out forwards}
@keyframes lineDraw{to{stroke-dashoffset:0}}
.n{animation:nodeIn .5s ease-out forwards}
@keyframes nodeIn{to{opacity:1}}
.beacon{animation:pulse 2.4s ease-in-out infinite}
@keyframes pulse{50%{opacity:.3}}
.caret{animation:blink 1.2s steps(2) infinite}
@keyframes blink{50%{opacity:0}}
.f{animation:flicker 7s ease-in-out infinite}
@keyframes flicker{0%,100%{opacity:.7}50%{opacity:.25}}

@media (prefers-reduced-motion: reduce){
  *{animation:none !important}
  .b{opacity:1 !important}
  .l{stroke-dashoffset:0 !important}
  .n,.s{opacity:1 !important}
  .caret{opacity:1 !important}
}
</style><rect x="0.0" y="5.5" width="22.0" height="9.0" rx="2" fill="none" opacity="1.0" stroke="#1B2748" stroke-width="0.9"/><rect x="38.0" y="5.5" width="22.0" height="9.0" rx="2" fill="none" opacity="1.0" stroke="#1B2748" stroke-width="0.9"/><rect x="76.0" y="5.5" width="22.0" height="9.0" rx="2" fill="none" opacity="1.0" stroke="#1B2748" stroke-width="0.9"/><rect x="114.0" y="5.5" width="22.0" height="9.0" rx="2" fill="none" opacity="1.0" stroke="#1B2748" stroke-width="0.9"/><rect x="152.0" y="5.5" width="22.0" height="9.0" rx="2" fill="none" opacity="1.0" stroke="#1B2748" stroke-width="0.9"/><rect x="190.0" y="5.5" width="22.0" height="9.0" rx="2" fill="none" opacity="1.0" stroke="#1B2748" stroke-width="0.9"/><rect x="228.0" y="5.5" width="22.0" height="9.0" rx="2" fill="none" opacity="1.0" stroke="#1B2748" stroke-width="0.9"/><rect x="266.0" y="5.5" width="22.0" height="9.0" rx="2" fill="none" opacity="1.0" stroke="#1B2748" stroke-width="0.9"/><rect x="304.0" y="5.5" width="22.0" height="9.0" rx="2" fill="none" opacity="1.0" stroke="#1B2748" stroke-width="0.9"/><rect x="342.0" y="5.5" width="22.0" height="9.0" rx="2" fill="none" opacity="1.0" stroke="#1B2748" stroke-width="0.9"/><rect x="380.0" y="5.5" width="22.0" height="9.0" rx="2" fill="none" opacity="1.0" stroke="#1B2748" stroke-width="0.9"/><rect x="418.0" y="5.5" width="22.0" height="9.0" rx="2" fill="none" opacity="1.0" stroke="#1B2748" stroke-width="0.9"/><rect x="456.0" y="5.5" width="22.0" height="9.0" rx="2" fill="none" opacity="1.0" stroke="#1B2748" stroke-width="0.9"/><rect x="494.0" y="5.5" width="22.0" height="9.0" rx="2" fill="none" opacity="1.0" stroke="#1B2748" stroke-width="0.9"/><rect x="532.0" y="5.5" width="22.0" height="9.0" rx="2" fill="none" opacity="1.0" stroke="#1B2748" stroke-width="0.9"/><rect x="570.0" y="5.5" width="22.0" height="9.0" rx="2" fill="none" opacity="1.0" stroke="#1B2748" stroke-width="0.9"/><rect x="608.0" y="5.5" width="22.0" height="9.0" rx="2" fill="none" opacity="1.0" stroke="#1B2748" stroke-width="0.9"/><rect x="646.0" y="5.5" width="22.0" height="9.0" rx="2" fill="none" opacity="1.0" stroke="#1B2748" stroke-width="0.9"/><rect x="684.0" y="5.5" width="22.0" height="9.0" rx="2" fill="none" opacity="1.0" stroke="#1B2748" stroke-width="0.9"/><rect x="722.0" y="5.5" width="22.0" height="9.0" rx="2" fill="none" opacity="1.0" stroke="#1B2748" stroke-width="0.9"/><rect x="760.0" y="5.5" width="22.0" height="9.0" rx="2" fill="none" opacity="1.0" stroke="#1B2748" stroke-width="0.9"/><rect x="798.0" y="5.5" width="22.0" height="9.0" rx="2" fill="none" opacity="1.0" stroke="#1B2748" stroke-width="0.9"/></svg>